<?xml version="1.0"?>
<!-- Generated by SVGo -->
<svg width="200" height="200"
     xmlns="http://www.w3.org/2000/svg"
     xmlns:xlink="http://www.w3.org/1999/xlink">
<rect x="0" y="0" width="50" height="50" fill="#00fa00" stroke="Black" stroke-width="1" />
<rect x="50" y="0" width="50" height="50" fill="#00fa00" stroke="Black" stroke-width="1" />
<rect x="100" y="0" width="50" height="50" fill="#00fa00" stroke="Black" stroke-width="1" />
<rect x="150" y="0" width="50" height="50" fill="#00fa00" stroke="Black" stroke-width="1" />
<rect x="0" y="50" width="50" height="50" fill="#00fa00" stroke="Black" stroke-width="1" />
<rect x="50" y="50" width="50" height="50" fill="#ff7f27" stroke="Black" stroke-width="1" />
<rect x="100" y="50" width="50" height="50" fill="#00fa00" stroke="Black" stroke-width="1" />
<rect x="150" y="50" width="50" height="50" fill="#ff7f27" stroke="Black" stroke-width="1" />
<rect x="0" y="100" width="50" height="50" fill="#ff7f27" stroke="Black" stroke-width="1" />
<rect x="50" y="100" width="50" height="50" fill="#00fa00" stroke="Black" stroke-width="1" />
<rect x="100" y="100" width="50" height="50" fill="#ff7f27" stroke="Black" stroke-width="1" />
<rect x="150" y="100" width="50" height="50" fill="#00fa00" stroke="Black" stroke-width="1" />
<rect x="0" y="150" width="50" height="50" fill="#00fa00" stroke="Black" stroke-width="1" />
<rect x="50" y="150" width="50" height="50" fill="#00fa00" stroke="Black" stroke-width="1" />
<rect x="100" y="150" width="50" height="50" fill="#00fa00" stroke="Black" stroke-width="1" />
<rect x="150" y="150" width="50" height="50" fill="#00fa00" stroke="Black" stroke-width="1" />
<circle cx="25" cy="25" r="5" fill="blue" stroke="Black" stroke-width="1" />
<circle cx="75" cy="25" r="5" fill="blue" stroke="Black" stroke-width="1" />
<circle cx="125" cy="25" r="5" fill="blue" stroke="Black" stroke-width="1" />
<circle cx="175" cy="25" r="5" fill="blue" stroke="Black" stroke-width="1" />
<circle cx="25" cy="75" r="5" fill="blue" stroke="Black" stroke-width="1" />
<circle cx="75" cy="75" r="5" fill="blue" stroke="Black" stroke-width="1" />
<circle cx="125" cy="75" r="5" fill="blue" stroke="Black" stroke-width="1" />
<circle cx="175" cy="75" r="5" fill="blue" stroke="Black" stroke-width="1" />
<circle cx="25" cy="125" r="5" fill="blue" stroke="Black" stroke-width="1" />
<circle cx="75" cy="125" r="5" fill="blue" stroke="Black" stroke-width="1" />
<circle cx="125" cy="125" r="5" fill="blue" stroke="Black" stroke-width="1" />
<circle cx="175" cy="125" r="5" fill="blue" stroke="Black" stroke-width="1" />
<circle cx="25" cy="175" r="5" fill="blue" stroke="Black" stroke-width="1" />
<circle cx="75" cy="175" r="5" fill="blue" stroke="Black" stroke-width="1" />
<circle cx="125" cy="175" r="5" fill="blue" stroke="Black" stroke-width="1" />
<circle cx="175" cy="175" r="5" fill="blue" stroke="Black" stroke-width="1" />
<line x1="25" y1="25" x2="75" y2="25" stroke="Blue" stroke-width="0.8" />
<line x1="75" y1="25" x2="75" y2="75" stroke="Blue" stroke-width="0.8" />
<line x1="125" y1="25" x2="75" y2="25" stroke="Blue" stroke-width="0.8" />
<line x1="175" y1="25" x2="125" y2="25" stroke="Blue" stroke-width="0.8" />
<line x1="25" y1="75" x2="25" y2="125" stroke="Blue" stroke-width="0.8" />
<line x1="75" y1="75" x2="75" y2="125" stroke="Blue" stroke-width="0.8" />
<line x1="125" y1="75" x2="25" y2="125" stroke="Blue" stroke-width="0.8" />
<line x1="175" y1="75" x2="175" y2="25" stroke="Blue" stroke-width="0.8" />
<line x1="25" y1="125" x2="125" y2="75" stroke="Blue" stroke-width="0.8" />
<line x1="75" y1="125" x2="175" y2="125" stroke="Blue" stroke-width="0.8" />
<line x1="125" y1="125" x2="175" y2="125" stroke="Blue" stroke-width="0.8" />
<line x1="175" y1="125" x2="75" y2="125" stroke="Blue" stroke-width="0.8" />
<line x1="25" y1="175" x2="175" y2="125" stroke="Blue" stroke-width="0.8" />
<line x1="25" y1="175" x2="175" y2="125" stroke="Blue" stroke-width="0.8" />
<line x1="25" y1="175" x2="175" y2="125" stroke="Blue" stroke-width="0.8" />
<line x1="25" y1="175" x2="175" y2="125" stroke="Blue" stroke-width="0.8" />
</svg>
