<?xml version="1.0"?>
<!-- Generated by SVGo -->
<svg width="126" height="133"
     xmlns="http://www.w3.org/2000/svg"
     xmlns:xlink="http://www.w3.org/1999/xlink">
<polygon points="0,0 7,0 5,5 0,7" fill="#000000" stroke="Black" stroke-width="0.2" />
<polygon points="7,0 14,0 14,7 9,9 5,5" fill="#000000" stroke="Black" stroke-width="0.2" />
<polygon points="14,0 21,0 21,7 14,7" fill="#000000" stroke="Black" stroke-width="0.2" />
<polygon points="21,0 28,0 28,7 21,7" fill="#000000" stroke="Black" stroke-width="0.2" />
<polygon points="28,0 35,0 37,5 33,9 28,7" fill="#000000" stroke="Black" stroke-width="0.2" />
<polygon points="35,0 42,0 42,7 37,5" fill="#000000" stroke="Black" stroke-width="0.2" />
<polygon points="42,0 49,0 49,7 42,7" fill="#000000" stroke="Black" stroke-width="0.2" />
<polygon points="49,0 56,0 56,7 49,7" fill="#000000" stroke="Black" stroke-width="0.2" />
<polygon points="56,0 63,0 63,7 56,7" fill="#000000" stroke="Black" stroke-width="0.2" />
<polygon points="63,0 70,0 70,7 63,7" fill="#000000" stroke="Black" stroke-width="0.2" />
<polygon points="70,0 77,0 77,7 70,7" fill="#000000" stroke="Black" stroke-width="0.2" />
<polygon points="77,0 84,0 84,7 77,7" fill="#000000" stroke="Black" stroke-width="0.2" />
<polygon points="84,0 91,0 91,7 84,7" fill="#000000" stroke="Black" stroke-width="0.2" />
<polygon points="91,0 98,0 98,7 91,7" fill="#000000" stroke="Black" stroke-width="0.2" />
<polygon points="98,0 105,0 105,7 98,7" fill="#000000" stroke="Black" stroke-width="0.2" />
<polygon points="105,0 112,0 112,7 105,7" fill="#000000" stroke="Black" stroke-width="0.2" />
<polygon points="112,0 119,0 119,7 112,7" fill="#000000" stroke="Black" stroke-width="0.2" />
<polygon points="119,0 126,0 126,7 119,7" fill="#000000" stroke="Black" stroke-width="0.2" />
<polygon points="126,0 133,0 133,7 126,7" fill="#000000" stroke="Black" stroke-width="0.2" />
<polygon points="0,7 5,5 9,9 7,14 0,14" fill="#000000" stroke="Black" stroke-width="0.2" />
<polygon points="9,9 14,7 14,14 7,14" fill="#ffa440" stroke="Black" stroke-width="0.2" />
<polygon points="14,7 21,7 21,14 14,14" fill="#ffa440" stroke="Black" stroke-width="0.2" />
<polygon points="21,7 28,7 28,14 21,14" fill="#ffa440" stroke="Black" stroke-width="0.2" />
<polygon points="28,7 33,9 35,14 28,14" fill="#ffa440" stroke="Black" stroke-width="0.2" />
<polygon points="33,9 37,5 42,7 40,12 35,14" fill="#000000" stroke="Black" stroke-width="0.2" />
<polygon points="42,7 49,7 49,14 44,16 40,12" fill="#000000" stroke="Black" stroke-width="0.2" />
<polygon points="49,7 56,7 56,14 49,14" fill="#000000" stroke="Black" stroke-width="0.2" />
<polygon points="56,7 63,7 63,14 56,14" fill="#000000" stroke="Black" stroke-width="0.2" />
<polygon points="63,7 70,7 70,14 63,14" fill="#000000" stroke="Black" stroke-width="0.2" />
<polygon points="70,7 77,7 77,14 70,14" fill="#000000" stroke="Black" stroke-width="0.2" />
<polygon points="77,7 84,7 86,12 82,16 77,14" fill="#000000" stroke="Black" stroke-width="0.2" />
<polygon points="84,7 91,7 91,14 86,12" fill="#000000" stroke="Black" stroke-width="0.2" />
<polygon points="91,7 98,7 98,14 91,14" fill="#000000" stroke="Black" stroke-width="0.2" />
<polygon points="98,7 105,7 105,14 98,14" fill="#000000" stroke="Black" stroke-width="0.2" />
<polygon points="105,7 112,7 112,14 105,14" fill="#000000" stroke="Black" stroke-width="0.2" />
<polygon points="112,7 119,7 119,14 112,14" fill="#000000" stroke="Black" stroke-width="0.2" />
<polygon points="119,7 126,7 126,14 119,14" fill="#000000" stroke="Black" stroke-width="0.2" />
<polygon points="126,7 133,7 133,14 126,14" fill="#000000" stroke="Black" stroke-width="0.2" />
<polygon points="0,14 7,14 7,21 0,21" fill="#000000" stroke="Black" stroke-width="0.2" />
<polygon points="7,14 14,14 14,21 7,21" fill="#ffa440" stroke="Black" stroke-width="0.2" />
<polygon points="14,14 21,14 19,19 14,21" fill="#ffa440" stroke="Black" stroke-width="0.2" />
<polygon points="21,14 28,14 28,21 23,23 19,19" fill="#ffa440" stroke="Black" stroke-width="0.2" />
<polygon points="28,14 35,14 35,21 28,21" fill="#ffa440" stroke="Black" stroke-width="0.2" />
<polygon points="35,14 40,12 44,16 40,19 35,21" fill="#000000" stroke="Black" stroke-width="0.2" />
<polygon points="44,16 49,14 49,21 44,23 40,19" fill="#f83800" stroke="Black" stroke-width="0.2" />
<polygon points="49,14 56,14 56,21 49,21" fill="#f83800" stroke="Black" stroke-width="0.2" />
<polygon points="56,14 63,14 63,21 56,21" fill="#f83800" stroke="Black" stroke-width="0.2" />
<polygon points="63,14 70,14 70,21 63,21" fill="#f83800" stroke="Black" stroke-width="0.2" />
<polygon points="70,14 77,14 77,21 70,21" fill="#f83800" stroke="Black" stroke-width="0.2" />
<polygon points="77,14 82,16 86,19 82,23 77,21" fill="#f83800" stroke="Black" stroke-width="0.2" />
<polygon points="82,16 86,12 91,14 93,19 89,23 86,19" fill="#000000" stroke="Black" stroke-width="0.2" />
<polygon points="91,14 98,14 98,21 93,19" fill="#000000" stroke="Black" stroke-width="0.2" />
<polygon points="98,14 105,14 105,21 98,21" fill="#000000" stroke="Black" stroke-width="0.2" />
<polygon points="105,14 112,14 112,21 105,21" fill="#000000" stroke="Black" stroke-width="0.2" />
<polygon points="112,14 119,14 119,21 112,21" fill="#000000" stroke="Black" stroke-width="0.2" />
<polygon points="119,14 126,14 126,21 119,21" fill="#000000" stroke="Black" stroke-width="0.2" />
<polygon points="126,14 133,14 133,21 126,21" fill="#000000" stroke="Black" stroke-width="0.2" />
<polygon points="0,21 7,21 7,28 0,28" fill="#000000" stroke="Black" stroke-width="0.2" />
<polygon points="7,21 14,21 14,28 7,28" fill="#ffa440" stroke="Black" stroke-width="0.2" />
<polygon points="14,21 19,19 23,23 21,28 14,28" fill="#ffa440" stroke="Black" stroke-width="0.2" />
<polygon points="23,23 28,21 28,28 21,28" fill="#f83800" stroke="Black" stroke-width="0.2" />
<polygon points="28,21 35,21 35,28 28,28" fill="#f83800" stroke="Black" stroke-width="0.2" />
<polygon points="35,21 40,19 44,23 42,28 35,28" fill="#f83800" stroke="Black" stroke-width="0.2" />
<polygon points="44,23 49,21 49,28 42,28" fill="#f83800" stroke="Black" stroke-width="0.2" />
<polygon points="49,21 56,21 56,28 49,28" fill="#f83800" stroke="Black" stroke-width="0.2" />
<polygon points="56,21 63,21 63,28 56,28" fill="#f83800" stroke="Black" stroke-width="0.2" />
<polygon points="63,21 70,21 70,28 63,28" fill="#f83800" stroke="Black" stroke-width="0.2" />
<polygon points="70,21 77,21 77,28 70,28" fill="#f83800" stroke="Black" stroke-width="0.2" />
<polygon points="77,21 82,23 84,28 77,28" fill="#f83800" stroke="Black" stroke-width="0.2" />
<polygon points="82,23 86,19 89,23 91,28 84,28" fill="#f83800" stroke="Black" stroke-width="0.2" />
<polygon points="89,23 93,19 98,21 98,28 91,28" fill="#000000" stroke="Black" stroke-width="0.2" />
<polygon points="98,21 105,21 105,28 98,28" fill="#000000" stroke="Black" stroke-width="0.2" />
<polygon points="105,21 112,21 112,28 105,28" fill="#000000" stroke="Black" stroke-width="0.2" />
<polygon points="112,21 119,21 119,28 112,28" fill="#000000" stroke="Black" stroke-width="0.2" />
<polygon points="119,21 126,21 126,28 119,28" fill="#000000" stroke="Black" stroke-width="0.2" />
<polygon points="126,21 133,21 133,28 126,28" fill="#000000" stroke="Black" stroke-width="0.2" />
<polygon points="0,28 7,28 7,35 0,35" fill="#000000" stroke="Black" stroke-width="0.2" />
<polygon points="7,28 14,28 14,35 7,35" fill="#ac7c00" stroke="Black" stroke-width="0.2" />
<polygon points="14,28 21,28 21,35 14,35" fill="#ac7c00" stroke="Black" stroke-width="0.2" />
<polygon points="21,28 28,28 26,33 21,35" fill="#ac7c00" stroke="Black" stroke-width="0.2" />
<polygon points="28,28 35,28 33,33 30,37 26,33" fill="#ac7c00" stroke="Black" stroke-width="0.2" />
<polygon points="35,28 42,28 42,35 37,37 33,33" fill="#ffa440" stroke="Black" stroke-width="0.2" />
<polygon points="42,28 49,28 49,35 42,35" fill="#ac7c00" stroke="Black" stroke-width="0.2" />
<polygon points="49,28 56,28 56,35 49,35" fill="#ffa440" stroke="Black" stroke-width="0.2" />
<polygon points="56,28 63,28 65,33 61,37 56,35" fill="#ffa440" stroke="Black" stroke-width="0.2" />
<polygon points="63,28 70,28 72,33 68,37 65,33" fill="#ac7c00" stroke="Black" stroke-width="0.2" />
<polygon points="70,28 77,28 75,33 72,33" fill="#ac7c00" stroke="Black" stroke-width="0.2" />
<polygon points="77,28 84,28 86,33 82,37 79,37 75,33" fill="#ac7c00" stroke="Black" stroke-width="0.2" />
<polygon points="84,28 91,28 93,33 89,37 86,33" fill="#ac7c00" stroke="Black" stroke-width="0.2" />
<polygon points="91,28 98,28 100,33 96,37 93,33" fill="#000000" stroke="Black" stroke-width="0.2" />
<polygon points="98,28 105,28 105,35 100,33" fill="#000000" stroke="Black" stroke-width="0.2" />
<polygon points="105,28 112,28 112,35 105,35" fill="#000000" stroke="Black" stroke-width="0.2" />
<polygon points="112,28 119,28 119,35 112,35" fill="#000000" stroke="Black" stroke-width="0.2" />
<polygon points="119,28 126,28 126,35 119,35" fill="#000000" stroke="Black" stroke-width="0.2" />
<polygon points="126,28 133,28 133,35 126,35" fill="#000000" stroke="Black" stroke-width="0.2" />
<polygon points="0,35 7,35 7,42 0,42" fill="#000000" stroke="Black" stroke-width="0.2" />
<polygon points="7,35 14,35 12,40 7,42" fill="#ac7c00" stroke="Black" stroke-width="0.2" />
<polygon points="14,35 21,35 21,42 16,44 12,40" fill="#ac7c00" stroke="Black" stroke-width="0.2" />
<polygon points="21,35 26,33 30,37 26,40 21,42" fill="#ac7c00" stroke="Black" stroke-width="0.2" />
<polygon points="30,37 33,33 37,37 33,40 30,44 26,40" fill="#ffa440" stroke="Black" stroke-width="0.2" />
<polygon points="37,37 42,35 40,40 37,44 33,40" fill="#ffa440" stroke="Black" stroke-width="0.2" />
<polygon points="42,35 49,35 47,40 44,44 40,40" fill="#ac7c00" stroke="Black" stroke-width="0.2" />
<polygon points="49,35 56,35 56,42 51,44 47,40" fill="#ffa440" stroke="Black" stroke-width="0.2" />
<polygon points="56,35 61,37 61,40 56,42" fill="#ffa440" stroke="Black" stroke-width="0.2" />
<polygon points="61,37 65,33 68,37 68,40 65,44 61,40" fill="#ffa440" stroke="Black" stroke-width="0.2" />
<polygon points="68,37 72,33 75,33 79,37 77,42 72,44 68,40" fill="#ac7c00" stroke="Black" stroke-width="0.2" />
<polygon points="79,37 82,37 84,42 77,42" fill="#ffa440" stroke="Black" stroke-width="0.2" />
<polygon points="82,37 86,33 89,37 91,42 84,42" fill="#ac7c00" stroke="Black" stroke-width="0.2" />
<polygon points="89,37 93,33 96,37 98,42 91,42" fill="#ac7c00" stroke="Black" stroke-width="0.2" />
<polygon points="96,37 100,33 105,35 105,42 98,42" fill="#000000" stroke="Black" stroke-width="0.2" />
<polygon points="105,35 112,35 112,42 105,42" fill="#000000" stroke="Black" stroke-width="0.2" />
<polygon points="112,35 119,35 119,42 112,42" fill="#000000" stroke="Black" stroke-width="0.2" />
<polygon points="119,35 126,35 126,42 119,42" fill="#000000" stroke="Black" stroke-width="0.2" />
<polygon points="126,35 133,35 133,42 126,42" fill="#000000" stroke="Black" stroke-width="0.2" />
<polygon points="0,42 7,42 9,47 5,51 0,49" fill="#000000" stroke="Black" stroke-width="0.2" />
<polygon points="7,42 12,40 16,44 16,47 12,51 9,47" fill="#ac7c00" stroke="Black" stroke-width="0.2" />
<polygon points="16,44 21,42 21,49 16,47" fill="#ffa440" stroke="Black" stroke-width="0.2" />
<polygon points="21,42 26,40 30,44 28,49 21,49" fill="#ffa440" stroke="Black" stroke-width="0.2" />
<polygon points="30,44 33,40 37,44 33,47 28,49" fill="#ffa440" stroke="Black" stroke-width="0.2" />
<polygon points="37,44 40,40 44,44 44,47 40,51 37,51 33,47" fill="#ac7c00" stroke="Black" stroke-width="0.2" />
<polygon points="44,44 47,40 51,44 51,47 47,51 44,47" fill="#ffa440" stroke="Black" stroke-width="0.2" />
<polygon points="51,44 56,42 56,49 51,47" fill="#ffa440" stroke="Black" stroke-width="0.2" />
<polygon points="56,42 61,40 65,44 65,47 61,51 56,49" fill="#ffa440" stroke="Black" stroke-width="0.2" />
<polygon points="65,44 68,40 72,44 70,49 65,47" fill="#ac7c00" stroke="Black" stroke-width="0.2" />
<polygon points="72,44 77,42 75,47 70,49" fill="#ac7c00" stroke="Black" stroke-width="0.2" />
<polygon points="77,42 84,42 82,47 79,51 75,47" fill="#ffa440" stroke="Black" stroke-width="0.2" />
<polygon points="84,42 91,42 91,49 86,51 82,47" fill="#ac7c00" stroke="Black" stroke-width="0.2" />
<polygon points="91,42 98,42 98,49 91,49" fill="#ac7c00" stroke="Black" stroke-width="0.2" />
<polygon points="98,42 105,42 105,49 98,49" fill="#000000" stroke="Black" stroke-width="0.2" />
<polygon points="105,42 112,42 112,49 105,49" fill="#000000" stroke="Black" stroke-width="0.2" />
<polygon points="112,42 119,42 119,49 112,49" fill="#000000" stroke="Black" stroke-width="0.2" />
<polygon points="119,42 126,42 126,49 119,49" fill="#000000" stroke="Black" stroke-width="0.2" />
<polygon points="126,42 133,42 133,49 126,49" fill="#000000" stroke="Black" stroke-width="0.2" />
<polygon points="0,49 5,51 7,56 0,56" fill="#000000" stroke="Black" stroke-width="0.2" />
<polygon points="5,51 9,47 12,51 16,54 12,58 7,56" fill="#000000" stroke="Black" stroke-width="0.2" />
<polygon points="12,51 16,47 21,49 23,54 19,58 16,54" fill="#ac7c00" stroke="Black" stroke-width="0.2" />
<polygon points="21,49 28,49 26,54 23,54" fill="#ac7c00" stroke="Black" stroke-width="0.2" />
<polygon points="28,49 33,47 37,51 35,56 30,58 26,54" fill="#ac7c00" stroke="Black" stroke-width="0.2" />
<polygon points="37,51 40,51 42,56 35,56" fill="#ac7c00" stroke="Black" stroke-width="0.2" />
<polygon points="40,51 44,47 47,51 47,54 42,56" fill="#ac7c00" stroke="Black" stroke-width="0.2" />
<polygon points="47,51 51,47 56,49 56,56 51,58 47,54" fill="#ffa440" stroke="Black" stroke-width="0.2" />
<polygon points="56,49 61,51 63,56 56,56" fill="#ffa440" stroke="Black" stroke-width="0.2" />
<polygon points="61,51 65,47 70,49 70,56 63,56" fill="#ffa440" stroke="Black" stroke-width="0.2" />
<polygon points="70,49 75,47 79,51 79,54 75,58 70,56" fill="#ffa440" stroke="Black" stroke-width="0.2" />
<polygon points="79,51 82,47 86,51 84,56 79,54" fill="#ac7c00" stroke="Black" stroke-width="0.2" />
<polygon points="86,51 91,49 91,56 84,56" fill="#ac7c00" stroke="Black" stroke-width="0.2" />
<polygon points="91,49 98,49 96,54 91,56" fill="#ac7c00" stroke="Black" stroke-width="0.2" />
<polygon points="98,49 105,49 105,56 100,58 96,54" fill="#000000" stroke="Black" stroke-width="0.2" />
<polygon points="105,49 112,49 112,56 105,56" fill="#000000" stroke="Black" stroke-width="0.2" />
<polygon points="112,49 119,49 119,56 112,56" fill="#000000" stroke="Black" stroke-width="0.2" />
<polygon points="119,49 126,49 126,56 119,56" fill="#000000" stroke="Black" stroke-width="0.2" />
<polygon points="126,49 133,49 133,56 126,56" fill="#000000" stroke="Black" stroke-width="0.2" />
<polygon points="0,56 7,56 7,63 0,63" fill="#000000" stroke="Black" stroke-width="0.2" />
<polygon points="7,56 12,58 14,63 7,63" fill="#000000" stroke="Black" stroke-width="0.2" />
<polygon points="12,58 16,54 19,58 23,61 19,65 14,63" fill="#000000" stroke="Black" stroke-width="0.2" />
<polygon points="19,58 23,54 26,54 30,58 30,61 26,65 23,61" fill="#ac7c00" stroke="Black" stroke-width="0.2" />
<polygon points="30,58 35,56 35,63 30,61" fill="#ffa440" stroke="Black" stroke-width="0.2" />
<polygon points="35,56 42,56 42,63 35,63" fill="#ffa440" stroke="Black" stroke-width="0.2" />
<polygon points="42,56 47,54 51,58 49,63 42,63" fill="#ffa440" stroke="Black" stroke-width="0.2" />
<polygon points="51,58 56,56 56,63 49,63" fill="#ffa440" stroke="Black" stroke-width="0.2" />
<polygon points="56,56 63,56 63,63 56,63" fill="#ffa440" stroke="Black" stroke-width="0.2" />
<polygon points="63,56 70,56 70,63 63,63" fill="#ffa440" stroke="Black" stroke-width="0.2" />
<polygon points="70,56 75,58 77,63 70,63" fill="#ffa440" stroke="Black" stroke-width="0.2" />
<polygon points="75,58 79,54 84,56 84,63 77,63" fill="#ffa440" stroke="Black" stroke-width="0.2" />
<polygon points="84,56 91,56 91,63 84,63" fill="#000000" stroke="Black" stroke-width="0.2" />
<polygon points="91,56 96,54 100,58 98,63 91,63" fill="#000000" stroke="Black" stroke-width="0.2" />
<polygon points="100,58 105,56 105,63 98,63" fill="#000000" stroke="Black" stroke-width="0.2" />
<polygon points="105,56 112,56 114,61 110,65 105,63" fill="#000000" stroke="Black" stroke-width="0.2" />
<polygon points="112,56 119,56 119,63 114,61" fill="#000000" stroke="Black" stroke-width="0.2" />
<polygon points="119,56 126,56 126,63 119,63" fill="#000000" stroke="Black" stroke-width="0.2" />
<polygon points="126,56 133,56 133,63 126,63" fill="#000000" stroke="Black" stroke-width="0.2" />
<polygon points="0,63 7,63 5,68 0,70" fill="#000000" stroke="Black" stroke-width="0.2" />
<polygon points="7,63 14,63 14,70 9,72 5,68" fill="#000000" stroke="Black" stroke-width="0.2" />
<polygon points="14,63 19,65 23,68 19,72 14,70" fill="#000000" stroke="Black" stroke-width="0.2" />
<polygon points="19,65 23,61 26,65 28,70 23,68" fill="#000000" stroke="Black" stroke-width="0.2" />
<polygon points="26,65 30,61 35,63 33,68 28,70" fill="#ac7c00" stroke="Black" stroke-width="0.2" />
<polygon points="35,63 42,63 40,68 37,72 33,68" fill="#f83800" stroke="Black" stroke-width="0.2" />
<polygon points="42,63 49,63 49,70 44,72 40,68" fill="#ac7c00" stroke="Black" stroke-width="0.2" />
<polygon points="49,63 56,63 54,68 49,70" fill="#ac7c00" stroke="Black" stroke-width="0.2" />
<polygon points="56,63 63,63 61,68 58,72 54,68" fill="#ac7c00" stroke="Black" stroke-width="0.2" />
<polygon points="63,63 70,63 68,68 65,72 61,68" fill="#f83800" stroke="Black" stroke-width="0.2" />
<polygon points="70,63 77,63 77,70 72,72 68,68" fill="#ac7c00" stroke="Black" stroke-width="0.2" />
<polygon points="77,63 84,63 84,70 77,70" fill="#ac7c00" stroke="Black" stroke-width="0.2" />
<polygon points="84,63 91,63 91,70 84,70" fill="#ac7c00" stroke="Black" stroke-width="0.2" />
<polygon points="91,63 98,63 98,70 91,70" fill="#ac7c00" stroke="Black" stroke-width="0.2" />
<polygon points="98,63 105,63 105,70 98,70" fill="#ac7c00" stroke="Black" stroke-width="0.2" />
<polygon points="105,63 110,65 114,68 110,72 105,70" fill="#ac7c00" stroke="Black" stroke-width="0.2" />
<polygon points="110,65 114,61 119,63 121,68 117,72 114,68" fill="#000000" stroke="Black" stroke-width="0.2" />
<polygon points="119,63 126,63 126,70 121,68" fill="#000000" stroke="Black" stroke-width="0.2" />
<polygon points="126,63 133,63 133,70 126,70" fill="#000000" stroke="Black" stroke-width="0.2" />
<polygon points="0,70 5,68 9,72 7,77 0,77" fill="#000000" stroke="Black" stroke-width="0.2" />
<polygon points="9,72 14,70 14,77 7,77" fill="#ac7c00" stroke="Black" stroke-width="0.2" />
<polygon points="14,70 19,72 21,77 14,77" fill="#ac7c00" stroke="Black" stroke-width="0.2" />
<polygon points="19,72 23,68 28,70 28,77 21,77" fill="#000000" stroke="Black" stroke-width="0.2" />
<polygon points="28,70 33,68 37,72 37,75 33,79 28,77" fill="#f83800" stroke="Black" stroke-width="0.2" />
<polygon points="37,72 40,68 44,72 42,77 37,75" fill="#ac7c00" stroke="Black" stroke-width="0.2" />
<polygon points="44,72 49,70 49,77 42,77" fill="#ac7c00" stroke="Black" stroke-width="0.2" />
<polygon points="49,70 54,68 58,72 54,75 49,77" fill="#ac7c00" stroke="Black" stroke-width="0.2" />
<polygon points="58,72 61,68 65,72 63,77 58,79 54,75" fill="#f83800" stroke="Black" stroke-width="0.2" />
<polygon points="65,72 68,68 72,72 70,77 63,77" fill="#ac7c00" stroke="Black" stroke-width="0.2" />
<polygon points="72,72 77,70 77,77 70,77" fill="#ac7c00" stroke="Black" stroke-width="0.2" />
<polygon points="77,70 84,70 84,77 77,77" fill="#ac7c00" stroke="Black" stroke-width="0.2" />
<polygon points="84,70 91,70 91,77 84,77" fill="#ac7c00" stroke="Black" stroke-width="0.2" />
<polygon points="91,70 98,70 98,77 91,77" fill="#ac7c00" stroke="Black" stroke-width="0.2" />
<polygon points="98,70 105,70 103,75 98,77" fill="#ac7c00" stroke="Black" stroke-width="0.2" />
<polygon points="105,70 110,72 112,77 107,79 103,75" fill="#ac7c00" stroke="Black" stroke-width="0.2" />
<polygon points="110,72 114,68 117,72 119,77 112,77" fill="#ac7c00" stroke="Black" stroke-width="0.2" />
<polygon points="117,72 121,68 126,70 128,75 124,79 119,77" fill="#000000" stroke="Black" stroke-width="0.2" />
<polygon points="126,70 133,70 133,77 128,75" fill="#000000" stroke="Black" stroke-width="0.2" />
<polygon points="0,77 7,77 7,84 0,84" fill="#000000" stroke="Black" stroke-width="0.2" />
<polygon points="7,77 14,77 14,84 7,84" fill="#ac7c00" stroke="Black" stroke-width="0.2" />
<polygon points="14,77 21,77 21,84 14,84" fill="#ac7c00" stroke="Black" stroke-width="0.2" />
<polygon points="21,77 28,77 26,82 21,84" fill="#000000" stroke="Black" stroke-width="0.2" />
<polygon points="28,77 33,79 37,82 33,86 30,86 26,82" fill="#f83800" stroke="Black" stroke-width="0.2" />
<polygon points="33,79 37,75 42,77 42,84 37,82" fill="#f83800" stroke="Black" stroke-width="0.2" />
<polygon points="42,77 49,77 47,82 42,84" fill="#f83800" stroke="Black" stroke-width="0.2" />
<polygon points="49,77 54,75 58,79 58,82 54,86 51,86 47,82" fill="#f83800" stroke="Black" stroke-width="0.2" />
<polygon points="58,79 63,77 65,82 61,86 58,82" fill="#f83800" stroke="Black" stroke-width="0.2" />
<polygon points="63,77 70,77 72,82 68,86 65,82" fill="#ac7c00" stroke="Black" stroke-width="0.2" />
<polygon points="70,77 77,77 75,82 72,82" fill="#ac7c00" stroke="Black" stroke-width="0.2" />
<polygon points="77,77 84,77 84,84 79,86 75,82" fill="#ac7c00" stroke="Black" stroke-width="0.2" />
<polygon points="84,77 91,77 91,84 84,84" fill="#ac7c00" stroke="Black" stroke-width="0.2" />
<polygon points="91,77 98,77 98,84 91,84" fill="#ac7c00" stroke="Black" stroke-width="0.2" />
<polygon points="98,77 103,75 107,79 103,82 98,84" fill="#ac7c00" stroke="Black" stroke-width="0.2" />
<polygon points="107,79 112,77 112,84 107,86 103,82" fill="#ffa440" stroke="Black" stroke-width="0.2" />
<polygon points="112,77 119,77 119,84 112,84" fill="#ffa440" stroke="Black" stroke-width="0.2" />
<polygon points="119,77 124,79 126,84 119,84" fill="#ffa440" stroke="Black" stroke-width="0.2" />
<polygon points="124,79 128,75 133,77 133,84 126,84" fill="#000000" stroke="Black" stroke-width="0.2" />
<polygon points="0,84 7,84 7,91 0,91" fill="#000000" stroke="Black" stroke-width="0.2" />
<polygon points="7,84 14,84 14,91 7,91" fill="#ac7c00" stroke="Black" stroke-width="0.2" />
<polygon points="14,84 21,84 21,91 14,91" fill="#ac7c00" stroke="Black" stroke-width="0.2" />
<polygon points="21,84 26,82 30,86 30,89 26,93 21,91" fill="#f83800" stroke="Black" stroke-width="0.2" />
<polygon points="30,86 33,86 33,89 30,89" fill="#ffa440" stroke="Black" stroke-width="0.2" />
<polygon points="33,86 37,82 42,84 42,91 37,93 33,89" fill="#f83800" stroke="Black" stroke-width="0.2" />
<polygon points="42,84 47,82 51,86 51,89 47,93 42,91" fill="#f83800" stroke="Black" stroke-width="0.2" />
<polygon points="51,86 54,86 54,89 51,89" fill="#ffa440" stroke="Black" stroke-width="0.2" />
<polygon points="54,86 58,82 61,86 63,91 58,93 54,89" fill="#f83800" stroke="Black" stroke-width="0.2" />
<polygon points="61,86 65,82 68,86 72,89 68,93 63,91" fill="#f83800" stroke="Black" stroke-width="0.2" />
<polygon points="68,86 72,82 75,82 79,86 75,89 72,89" fill="#ac7c00" stroke="Black" stroke-width="0.2" />
<polygon points="79,86 84,84 84,91 79,93 75,89" fill="#f83800" stroke="Black" stroke-width="0.2" />
<polygon points="84,84 91,84 89,89 84,91" fill="#f83800" stroke="Black" stroke-width="0.2" />
<polygon points="91,84 98,84 98,91 93,93 89,89" fill="#f83800" stroke="Black" stroke-width="0.2" />
<polygon points="98,84 103,82 107,86 107,89 103,93 98,91" fill="#ffa440" stroke="Black" stroke-width="0.2" />
<polygon points="107,86 112,84 112,91 107,89" fill="#ffa440" stroke="Black" stroke-width="0.2" />
<polygon points="112,84 119,84 117,89 112,91" fill="#ffa440" stroke="Black" stroke-width="0.2" />
<polygon points="119,84 126,84 124,89 121,93 117,89" fill="#ffa440" stroke="Black" stroke-width="0.2" />
<polygon points="126,84 133,84 133,91 128,93 124,89" fill="#000000" stroke="Black" stroke-width="0.2" />
<polygon points="0,91 7,91 7,98 0,98" fill="#000000" stroke="Black" stroke-width="0.2" />
<polygon points="7,91 14,91 14,98 7,98" fill="#ac7c00" stroke="Black" stroke-width="0.2" />
<polygon points="14,91 21,91 21,98 14,98" fill="#ac7c00" stroke="Black" stroke-width="0.2" />
<polygon points="21,91 26,93 28,98 21,98" fill="#f83800" stroke="Black" stroke-width="0.2" />
<polygon points="26,93 30,89 33,89 37,93 35,98 28,98" fill="#f83800" stroke="Black" stroke-width="0.2" />
<polygon points="37,93 42,91 42,98 35,98" fill="#f83800" stroke="Black" stroke-width="0.2" />
<polygon points="42,91 47,93 49,98 42,98" fill="#f83800" stroke="Black" stroke-width="0.2" />
<polygon points="47,93 51,89 54,89 58,93 56,98 49,98" fill="#f83800" stroke="Black" stroke-width="0.2" />
<polygon points="58,93 63,91 63,98 56,98" fill="#f83800" stroke="Black" stroke-width="0.2" />
<polygon points="63,91 68,93 70,98 63,98" fill="#f83800" stroke="Black" stroke-width="0.2" />
<polygon points="68,93 72,89 75,89 79,93 77,98 70,98" fill="#f83800" stroke="Black" stroke-width="0.2" />
<polygon points="79,93 84,91 82,96 77,98" fill="#f83800" stroke="Black" stroke-width="0.2" />
<polygon points="84,91 89,89 93,93 89,96 86,100 82,96" fill="#f83800" stroke="Black" stroke-width="0.2" />
<polygon points="93,93 98,91 98,98 93,100 89,96" fill="#ac7c00" stroke="Black" stroke-width="0.2" />
<polygon points="98,91 103,93 107,96 103,100 98,98" fill="#ac7c00" stroke="Black" stroke-width="0.2" />
<polygon points="103,93 107,89 112,91 112,98 107,96" fill="#ffa440" stroke="Black" stroke-width="0.2" />
<polygon points="112,91 117,89 121,93 117,96 112,98" fill="#ffa440" stroke="Black" stroke-width="0.2" />
<polygon points="121,93 124,89 128,93 126,98 121,100 117,96" fill="#000000" stroke="Black" stroke-width="0.2" />
<polygon points="128,93 133,91 133,98 126,98" fill="#000000" stroke="Black" stroke-width="0.2" />
<polygon points="0,98 7,98 9,103 5,107 0,105" fill="#000000" stroke="Black" stroke-width="0.2" />
<polygon points="7,98 14,98 14,105 9,103" fill="#ac7c00" stroke="Black" stroke-width="0.2" />
<polygon points="14,98 21,98 21,105 14,105" fill="#ac7c00" stroke="Black" stroke-width="0.2" />
<polygon points="21,98 28,98 28,105 21,105" fill="#f83800" stroke="Black" stroke-width="0.2" />
<polygon points="28,98 35,98 35,105 28,105" fill="#f83800" stroke="Black" stroke-width="0.2" />
<polygon points="35,98 42,98 44,103 40,107 35,105" fill="#f83800" stroke="Black" stroke-width="0.2" />
<polygon points="42,98 49,98 49,105 44,103" fill="#f83800" stroke="Black" stroke-width="0.2" />
<polygon points="49,98 56,98 56,105 49,105" fill="#f83800" stroke="Black" stroke-width="0.2" />
<polygon points="56,98 63,98 63,105 56,105" fill="#f83800" stroke="Black" stroke-width="0.2" />
<polygon points="63,98 70,98 70,105 63,105" fill="#f83800" stroke="Black" stroke-width="0.2" />
<polygon points="70,98 77,98 77,105 70,105" fill="#f83800" stroke="Black" stroke-width="0.2" />
<polygon points="77,98 82,96 86,100 86,103 82,107 77,105" fill="#f83800" stroke="Black" stroke-width="0.2" />
<polygon points="86,100 89,96 93,100 93,103 89,107 86,103" fill="#ac7c00" stroke="Black" stroke-width="0.2" />
<polygon points="93,100 98,98 98,105 93,103" fill="#ac7c00" stroke="Black" stroke-width="0.2" />
<polygon points="98,98 103,100 105,105 98,105" fill="#ac7c00" stroke="Black" stroke-width="0.2" />
<polygon points="103,100 107,96 112,98 114,103 110,107 105,105" fill="#ac7c00" stroke="Black" stroke-width="0.2" />
<polygon points="112,98 117,96 121,100 121,103 117,107 114,103" fill="#000000" stroke="Black" stroke-width="0.2" />
<polygon points="121,100 126,98 126,105 121,103" fill="#000000" stroke="Black" stroke-width="0.2" />
<polygon points="126,98 133,98 133,105 126,105" fill="#000000" stroke="Black" stroke-width="0.2" />
<polygon points="0,105 5,107 7,112 0,112" fill="#000000" stroke="Black" stroke-width="0.2" />
<polygon points="5,107 9,103 14,105 14,112 7,112" fill="#000000" stroke="Black" stroke-width="0.2" />
<polygon points="14,105 21,105 21,112 14,112" fill="#000000" stroke="Black" stroke-width="0.2" />
<polygon points="21,105 28,105 28,112 21,112" fill="#000000" stroke="Black" stroke-width="0.2" />
<polygon points="28,105 35,105 35,112 28,112" fill="#000000" stroke="Black" stroke-width="0.2" />
<polygon points="35,105 40,107 44,110 40,114 35,112" fill="#000000" stroke="Black" stroke-width="0.2" />
<polygon points="40,107 44,103 49,105 49,112 44,110" fill="#f83800" stroke="Black" stroke-width="0.2" />
<polygon points="49,105 56,105 56,112 49,112" fill="#f83800" stroke="Black" stroke-width="0.2" />
<polygon points="56,105 63,105 65,110 61,114 56,112" fill="#f83800" stroke="Black" stroke-width="0.2" />
<polygon points="63,105 70,105 70,112 65,110" fill="#f83800" stroke="Black" stroke-width="0.2" />
<polygon points="70,105 77,105 77,112 70,112" fill="#f83800" stroke="Black" stroke-width="0.2" />
<polygon points="77,105 82,107 84,112 77,112" fill="#f83800" stroke="Black" stroke-width="0.2" />
<polygon points="82,107 86,103 89,107 93,110 89,114 84,112" fill="#f83800" stroke="Black" stroke-width="0.2" />
<polygon points="89,107 93,103 98,105 98,112 93,110" fill="#ac7c00" stroke="Black" stroke-width="0.2" />
<polygon points="98,105 105,105 107,110 103,114 98,112" fill="#ac7c00" stroke="Black" stroke-width="0.2" />
<polygon points="105,105 110,107 112,112 107,110" fill="#ac7c00" stroke="Black" stroke-width="0.2" />
<polygon points="110,107 114,103 117,107 119,112 112,112" fill="#ac7c00" stroke="Black" stroke-width="0.2" />
<polygon points="117,107 121,103 126,105 126,112 119,112" fill="#000000" stroke="Black" stroke-width="0.2" />
<polygon points="126,105 133,105 133,112 126,112" fill="#000000" stroke="Black" stroke-width="0.2" />
<polygon points="0,112 7,112 7,119 0,119" fill="#000000" stroke="Black" stroke-width="0.2" />
<polygon points="7,112 14,112 14,119 7,119" fill="#000000" stroke="Black" stroke-width="0.2" />
<polygon points="14,112 21,112 21,119 14,119" fill="#000000" stroke="Black" stroke-width="0.2" />
<polygon points="21,112 28,112 28,119 21,119" fill="#000000" stroke="Black" stroke-width="0.2" />
<polygon points="28,112 35,112 35,119 28,119" fill="#000000" stroke="Black" stroke-width="0.2" />
<polygon points="35,112 40,114 42,119 35,119" fill="#000000" stroke="Black" stroke-width="0.2" />
<polygon points="40,114 44,110 49,112 49,119 42,119" fill="#000000" stroke="Black" stroke-width="0.2" />
<polygon points="49,112 56,112 56,119 49,119" fill="#000000" stroke="Black" stroke-width="0.2" />
<polygon points="56,112 61,114 65,117 61,121 56,119" fill="#000000" stroke="Black" stroke-width="0.2" />
<polygon points="61,114 65,110 70,112 70,119 65,117" fill="#f83800" stroke="Black" stroke-width="0.2" />
<polygon points="70,112 77,112 77,119 70,119" fill="#f83800" stroke="Black" stroke-width="0.2" />
<polygon points="77,112 84,112 84,119 77,119" fill="#f83800" stroke="Black" stroke-width="0.2" />
<polygon points="84,112 89,114 91,119 84,119" fill="#f83800" stroke="Black" stroke-width="0.2" />
<polygon points="89,114 93,110 98,112 96,117 91,119" fill="#f83800" stroke="Black" stroke-width="0.2" />
<polygon points="98,112 103,114 107,117 103,121 100,121 96,117" fill="#000000" stroke="Black" stroke-width="0.2" />
<polygon points="103,114 107,110 112,112 112,119 107,117" fill="#ac7c00" stroke="Black" stroke-width="0.2" />
<polygon points="112,112 119,112 117,117 112,119" fill="#ac7c00" stroke="Black" stroke-width="0.2" />
<polygon points="119,112 126,112 126,119 121,121 117,117" fill="#000000" stroke="Black" stroke-width="0.2" />
<polygon points="126,112 133,112 133,119 126,119" fill="#000000" stroke="Black" stroke-width="0.2" />
<polygon points="0,119 7,119 7,126 0,126" fill="#000000" stroke="Black" stroke-width="0.2" />
<polygon points="7,119 14,119 14,126 7,126" fill="#000000" stroke="Black" stroke-width="0.2" />
<polygon points="14,119 21,119 21,126 14,126" fill="#000000" stroke="Black" stroke-width="0.2" />
<polygon points="21,119 28,119 28,126 21,126" fill="#000000" stroke="Black" stroke-width="0.2" />
<polygon points="28,119 35,119 35,126 28,126" fill="#000000" stroke="Black" stroke-width="0.2" />
<polygon points="35,119 42,119 42,126 35,126" fill="#000000" stroke="Black" stroke-width="0.2" />
<polygon points="42,119 49,119 49,126 42,126" fill="#000000" stroke="Black" stroke-width="0.2" />
<polygon points="49,119 56,119 56,126 49,126" fill="#000000" stroke="Black" stroke-width="0.2" />
<polygon points="56,119 61,121 63,126 56,126" fill="#000000" stroke="Black" stroke-width="0.2" />
<polygon points="61,121 65,117 70,119 70,126 63,126" fill="#000000" stroke="Black" stroke-width="0.2" />
<polygon points="70,119 77,119 77,126 70,126" fill="#000000" stroke="Black" stroke-width="0.2" />
<polygon points="77,119 84,119 84,126 77,126" fill="#000000" stroke="Black" stroke-width="0.2" />
<polygon points="84,119 91,119 91,126 84,126" fill="#000000" stroke="Black" stroke-width="0.2" />
<polygon points="91,119 96,117 100,121 98,126 91,126" fill="#000000" stroke="Black" stroke-width="0.2" />
<polygon points="100,121 103,121 105,126 98,126" fill="#000000" stroke="Black" stroke-width="0.2" />
<polygon points="103,121 107,117 112,119 112,126 105,126" fill="#000000" stroke="Black" stroke-width="0.2" />
<polygon points="112,119 117,117 121,121 119,126 112,126" fill="#000000" stroke="Black" stroke-width="0.2" />
<polygon points="121,121 126,119 126,126 119,126" fill="#000000" stroke="Black" stroke-width="0.2" />
<polygon points="126,119 133,119 133,126 126,126" fill="#000000" stroke="Black" stroke-width="0.2" />
</svg>
